<?xml version="1.0" encoding="UTF-8"?>
<svg xmlns="http://www.w3.org/2000/svg" version="1.1" viewBox="0 0 72.1 72.1">
  <defs>
    <style>
      .cls-1 {
        fill: #fff;
      }

      .cls-2 {
        fill: #5ce1e6;
      }
    </style>
  </defs>
  <!-- Generator: Adobe Illustrator 28.7.1, SVG Export Plug-In . SVG Version: 1.2.0 Build 142)  -->
  <g>
    <g id="Layer_1">
      <path class="cls-1" d="M36.1,0c-7.1,0-14.1,2.1-20,6.1-5.9,4-10.6,9.6-13.3,16.2C0,28.9-.7,36.1.7,43.1c1.4,7,4.8,13.4,9.9,18.5,5,5,11.5,8.5,18.5,9.9,7,1.4,14.2.7,20.8-2.1,6.6-2.7,12.2-7.4,16.2-13.3,4-5.9,6.1-12.9,6.1-20h-18c0,3.6-1.1,7.1-3,10-2,3-4.8,5.3-8.1,6.6-3.3,1.4-6.9,1.7-10.4,1-3.5-.7-6.7-2.4-9.2-4.9-2.5-2.5-4.2-5.7-4.9-9.2-.7-3.5-.3-7.1,1-10.4,1.4-3.3,3.7-6.1,6.6-8.1,3-2,6.5-3,10-3V0Z"/>
      <path class="cls-2" d="M36.1,0c-4.7,0-9.4.9-13.8,2.7-4.4,1.8-8.4,4.5-11.7,7.8-3.3,3.3-6,7.3-7.8,11.7C.9,26.6,0,31.3,0,36.1h18c0-2.4.5-4.7,1.4-6.9.9-2.2,2.2-4.2,3.9-5.9,1.7-1.7,3.7-3,5.9-3.9,2.2-.9,4.5-1.4,6.9-1.4V0Z"/>
      <circle class="cls-2" cx="36.1" cy="36.1" r="11.3"/>
      <path class="cls-1" d="M47.3,36.1c0-1.5-.3-2.9-.9-4.3-.6-1.4-1.4-2.6-2.4-3.7-1-1-2.3-1.9-3.7-2.4s-2.8-.9-4.3-.9-2.9.3-4.3.9c-1.4.6-2.6,1.4-3.7,2.4-1,1-1.9,2.3-2.4,3.7-.6,1.4-.9,2.8-.9,4.3h22.5Z"/>
    </g>
  </g>
</svg>